<?xml version="1.0" encoding="iso-8859-1"?>
<!-- Generator: Adobe Illustrator 19.0.0, SVG Export Plug-In . SVG Version: 6.00 Build 0)  -->
<svg xmlns="http://www.w3.org/2000/svg" xmlns:xlink="http://www.w3.org/1999/xlink" version="1.1" id="Layer_1" x="0px" y="0px" viewBox="0 0 511.999 511.999" style="enable-background:new 0 0 511.999 511.999;" xml:space="preserve">
<g>
	<g>
		<path d="M144.602,171.379c-4.142,0-7.5,3.358-7.5,7.5v8.569c0,4.142,3.358,7.5,7.5,7.5c4.142,0,7.5-3.358,7.5-7.5v-8.569    C152.102,174.736,148.744,171.379,144.602,171.379z"/>
	</g>
</g>
<g>
	<g>
		<path d="M213.153,171.379c-4.142,0-7.5,3.358-7.5,7.5v8.569c0,4.142,3.358,7.5,7.5,7.5c4.142,0,7.5-3.358,7.5-7.5v-8.569    C220.653,174.736,217.295,171.379,213.153,171.379z"/>
	</g>
</g>
<g>
	<g>
		<path d="M201.663,213.13c-2.724-3.12-7.462-3.439-10.581-0.715c-3.07,2.681-7.518,4.219-12.204,4.219s-9.134-1.538-12.205-4.219    c-3.119-2.724-7.857-2.404-10.583,0.716c-2.724,3.12-2.404,7.858,0.716,10.583c5.849,5.107,13.688,7.92,22.071,7.92    c8.384,0,16.223-2.813,22.071-7.921C204.068,220.988,204.388,216.251,201.663,213.13z"/>
	</g>
</g>
<g>
	<g>
		<path d="M298.843,171.379c-4.142,0-7.5,3.358-7.5,7.5v8.569c0,4.142,3.358,7.5,7.5,7.5c4.142,0,7.5-3.358,7.5-7.5v-8.569    C306.343,174.736,302.985,171.379,298.843,171.379z"/>
	</g>
</g>
<g>
	<g>
		<path d="M367.395,171.379c-4.142,0-7.5,3.358-7.5,7.5v8.569c0,4.142,3.358,7.5,7.5,7.5c4.142,0,7.5-3.358,7.5-7.5v-8.569    C374.895,174.736,371.537,171.379,367.395,171.379z"/>
	</g>
</g>
<g>
	<g>
		<path d="M355.905,213.13c-2.723-3.119-7.461-3.439-10.581-0.716c-3.071,2.682-7.519,4.219-12.205,4.219s-9.134-1.538-12.204-4.219    c-3.12-2.725-7.858-2.404-10.583,0.715c-2.725,3.12-2.404,7.858,0.715,10.583c5.849,5.108,13.687,7.921,22.071,7.921    c8.384,0,16.222-2.813,22.071-7.92C358.309,220.988,358.629,216.251,355.905,213.13z"/>
	</g>
</g>
<g>
	<g>
		<path d="M511.102,123.397c-25.68-47.691-62.473-59.562-88.816-61.123c-24.252-1.437-43.882,5.356-49.566,7.577    c-11.824-6.289-25.3-9.868-39.6-9.868c-14.301,0-27.776,3.579-39.6,9.868c-5.686-2.221-25.323-9.015-49.566-7.577    c-8.711,0.516-18.567,2.173-28.783,5.866c-11.367-5.414-23.564-8.157-36.292-8.157c-14.301,0-27.776,3.579-39.6,9.868    c-5.686-2.221-25.321-9.015-49.566-7.577c-26.344,1.561-63.137,13.432-88.816,61.123c-0.957,1.777-1.157,3.864-0.556,5.791    c0.602,1.926,1.954,3.529,3.752,4.446l51.414,26.219c1.063,0.542,2.226,0.813,3.39,0.813c1.04,0,2.082-0.216,3.056-0.647    c2.065-0.914,3.611-2.72,4.204-4.899c0.36-1.322,7.967-28.097,33.627-40.547c-3.558,9.339-5.524,19.457-5.524,30.03v10.811    c-5.036,1.613-9.498,4.827-12.625,9.248c-4.701,6.646-5.792,15-2.994,22.922c2.69,7.617,9.179,13.236,17.033,15.185    c5.191,28.509,24.426,51.646,50,62.54v11.452l-39.856,17.081c-12.227,5.24-20.126,17.22-20.126,30.522v120.152    c0,4.142,3.358,7.5,7.5,7.5c4.142,0,7.5-3.358,7.5-7.5V325.519l16.454,16.454c1.82,1.82,2.822,4.24,2.822,6.815v95.729    c0,4.142,3.358,7.5,7.5,7.5c4.142,0,7.5-3.358,7.5-7.5v-95.729c0-6.582-2.563-12.77-7.216-17.422l-20.765-20.765    c1.396-1.207,2.984-2.219,4.741-2.972l35.7-15.3c4.441,13.115,16.859,22.584,31.454,22.584c14.595,0,27.013-9.469,31.454-22.584    l16.999,7.285c0.963,0.413,1.965,0.608,2.951,0.608c2.91,0,5.678-1.704,6.897-4.547c1.632-3.808-0.132-8.217-3.939-9.848    l-21.154-9.066v-11.53c19.346-8.308,35.137-23.65,43.903-42.967c8.73,19.408,24.489,34.766,43.924,43.045v11.452l-39.856,17.081    c-12.227,5.24-20.126,17.22-20.126,30.522v120.152c0,4.142,3.358,7.5,7.5,7.5c4.142,0,7.5-3.358,7.5-7.5V325.52l16.453,16.453    c1.82,1.82,2.823,4.241,2.823,6.815v95.729c0,4.142,3.358,7.5,7.5,7.5c4.142,0,7.5-3.358,7.5-7.5v-95.729    c0-6.581-2.563-12.769-7.216-17.422l-20.765-20.765c1.396-1.207,2.984-2.219,4.741-2.972l35.7-15.3    c4.441,13.115,16.858,22.584,31.454,22.584s27.013-9.469,31.454-22.584l35.701,15.3c1.756,0.753,3.345,1.765,4.74,2.972    l-20.765,20.765c-4.654,4.653-7.217,10.84-7.217,17.422v95.729c0,4.142,3.358,7.5,7.5,7.5c4.142,0,7.5-3.358,7.5-7.5v-95.729    c0-2.575,1.002-4.995,2.823-6.815l16.453-16.453v118.997c0,4.142,3.358,7.5,7.5,7.5c4.142,0,7.5-3.358,7.5-7.5V324.364    c0-13.302-7.9-25.282-20.126-30.522l-39.857-17.081v-11.452c25.573-10.894,44.809-34.031,50-62.54    c7.854-1.949,14.342-7.568,17.033-15.185c2.798-7.921,1.707-16.276-2.994-22.922c-3.127-4.421-7.589-7.635-12.625-9.248v-10.811    c0-10.573-1.966-20.691-5.524-30.03c25.659,12.45,33.266,39.222,33.621,40.526c0.582,2.19,2.123,3.999,4.192,4.922    c0.974,0.435,2.016,0.651,3.056,0.651c1.17,0,2.339-0.274,3.407-0.819l51.414-26.219c1.798-0.917,3.15-2.52,3.752-4.446    C512.259,127.261,512.059,125.173,511.102,123.397z M86.022,105.041c-17.649,11.15-26.949,27.615-31.248,37.602l-36.858-18.796    c17.626-28.938,41.86-44.594,72.126-46.564c0.044-0.003,0.086-0.004,0.13-0.007C87.634,83.601,85.121,93.166,86.022,105.041z     M405.3,77.605c0.707,1.095,5.263,8.606,5.808,20.26c-2.943-1.036-6.051-1.922-9.331-2.635    c-3.879-5.381-8.374-10.286-13.382-14.617C392.986,79.429,398.756,78.257,405.3,77.605z M333.118,74.982    c35.854,0,65.458,27.247,69.211,62.121H263.908C267.661,102.229,297.264,74.982,333.118,74.982z M260.94,77.603    c6.543,0.652,12.313,1.824,16.904,3.008c-5.009,4.333-9.504,9.237-13.384,14.618c-3.284,0.714-6.395,1.602-9.342,2.639    C255.633,86.252,260.114,78.869,260.94,77.603z M244.284,77.282c0.044-0.003,0.086-0.004,0.13-0.007    c-2.538,6.325-5.051,15.89-4.15,27.765c-17.65,11.152-26.949,27.616-31.248,37.603l-36.858-18.796    C189.784,94.908,214.018,79.252,244.284,77.282z M106.698,77.603c6.544,0.652,12.314,1.824,16.904,3.008    c-5.008,4.332-9.503,9.237-13.384,14.618c-3.283,0.714-6.395,1.602-9.342,2.639C101.391,86.252,105.872,78.869,106.698,77.603z     M197.085,281.632c0,0.025,0,0.05,0,0.076c-0.001,10.038-8.168,18.205-18.207,18.205s-18.206-8.167-18.207-18.205    c0-0.025,0-0.05,0-0.076v-11.536c5.874,1.286,11.965,1.971,18.207,1.971c6.231,0,12.322-0.703,18.207-2.008V281.632z     M178.878,257.068c-35.526,0-65.26-26.601-69.164-61.876c-0.42-3.8-3.632-6.675-7.455-6.675h-0.451    c-4.082,0-7.793-2.438-9.026-5.929c-1.581-4.476,0.009-7.725,1.097-9.264c1.809-2.557,4.754-4.083,7.878-4.083    c4.142,0,7.5-3.358,7.5-7.5v-9.638h26.776c4.142,0,7.5-3.358,7.5-7.5c0-4.142-3.358-7.5-7.5-7.5h-26.366    c3.753-34.874,33.356-62.121,69.21-62.121c6.039,0,11.928,0.756,17.625,2.243c-14.752,9.237-29.289,23.741-41.367,46.172    c-0.957,1.777-1.157,3.864-0.556,5.791c0.602,1.926,1.954,3.529,3.752,4.446l51.414,26.219c1.068,0.545,2.237,0.819,3.407,0.819    c1.041,0,2.083-0.216,3.056-0.651c2.069-0.923,3.61-2.732,4.192-4.922c0.086-0.323,7.717-27.811,33.605-40.486    c-3.548,9.328-5.509,19.433-5.509,29.991v10.811c-5.036,1.613-9.497,4.827-12.625,9.248c-4.701,6.646-5.792,15-2.994,22.922    c2.348,6.649,7.592,11.774,14.11,14.266C240.291,233.662,211.878,257.068,178.878,257.068z M351.326,281.632    c0,0.025,0,0.05,0,0.076c-0.001,10.038-8.168,18.205-18.207,18.205s-18.206-8.166-18.207-18.205c0-0.025,0-0.051,0-0.076v-11.535    c5.874,1.286,11.965,1.971,18.207,1.971s12.333-0.686,18.207-1.971V281.632z M418.118,173.324    c1.088,1.539,2.678,4.788,1.097,9.264c-1.233,3.491-4.945,5.929-9.026,5.929h-0.451c-3.823,0-7.034,2.875-7.455,6.675    c-3.903,35.275-33.637,61.876-69.164,61.876c-35.526,0-65.26-26.601-69.164-61.877c-0.42-3.799-3.632-6.675-7.455-6.675h-0.451    c-4.082,0-7.793-2.438-9.026-5.929c-1.581-4.476,0.009-7.725,1.097-9.264c1.809-2.557,4.753-4.083,7.878-4.083    c4.142,0,7.5-3.358,7.5-7.5v-9.638h139.241v9.638c0,4.142,3.358,7.5,7.5,7.5C413.364,169.24,416.309,170.767,418.118,173.324z     M457.222,142.643c-4.299-9.987-13.598-26.451-31.248-37.603c0.901-11.875-1.612-21.44-4.15-27.765    c0.044,0.003,0.086,0.004,0.13,0.007c30.266,1.97,54.5,17.626,72.126,46.564L457.222,142.643z"/>
	</g>
</g>
<g>
</g>
<g>
</g>
<g>
</g>
<g>
</g>
<g>
</g>
<g>
</g>
<g>
</g>
<g>
</g>
<g>
</g>
<g>
</g>
<g>
</g>
<g>
</g>
<g>
</g>
<g>
</g>
<g>
</g>
</svg>
