<?xml version="1.0" encoding="iso-8859-1"?>
<!-- Generator: Adobe Illustrator 19.0.0, SVG Export Plug-In . SVG Version: 6.00 Build 0)  -->
<svg xmlns="http://www.w3.org/2000/svg" xmlns:xlink="http://www.w3.org/1999/xlink" version="1.1" id="Layer_1" x="0px" y="0px" viewBox="0 0 512 512" style="enable-background:new 0 0 512 512;" xml:space="preserve">
<g>
	<g>
		<path d="M497.03,181.211c-25.079-43.668-60.022-80.169-101.053-105.556C355.682,50.724,310.032,36.957,263.5,35.617V7.5    c0-4.142-3.358-7.5-7.5-7.5c-4.142,0-7.5,3.358-7.5,7.5v28.117c-46.532,1.339-92.182,15.106-132.477,40.037    C74.992,101.042,40.049,137.542,14.97,181.211c-2.001,3.484-0.9,7.927,2.496,10.074c3.396,2.146,7.882,1.237,10.171-2.066    c6.468-9.331,15.076-14.469,24.237-14.469c11.576,0,22.554,8.498,28.649,22.177c1.112,2.496,3.492,4.189,6.214,4.421    c2.717,0.232,5.354-1.035,6.873-3.306c9.602-14.367,27.617-23.292,47.014-23.292c19.397,0,37.413,8.925,47.014,23.292    c1.338,2.002,3.556,3.24,5.962,3.328c2.405,0.09,4.708-0.985,6.188-2.883c10.177-13.052,28.4-21.69,48.71-23.414v307.239    c0,16.37,13.318,29.688,29.688,29.688s29.688-13.318,29.688-29.688v-22.188c0-4.142-3.358-7.5-7.5-7.5c-4.142,0-7.5,3.358-7.5,7.5    v22.188c0,8.099-6.589,14.688-14.688,14.688s-14.688-6.589-14.688-14.688V175.073c20.311,1.723,38.534,10.361,48.71,23.414    c1.48,1.898,3.785,2.97,6.188,2.883c2.406-0.088,4.624-1.326,5.962-3.328c9.602-14.367,27.617-23.292,47.014-23.292    c19.397,0,37.413,8.925,47.014,23.292c1.399,2.093,3.745,3.333,6.234,3.333c0.212,0,0.425-0.009,0.638-0.027    c2.722-0.232,5.102-1.925,6.214-4.421c6.095-13.679,17.073-22.177,28.649-22.177c9.162,0,17.769,5.138,24.237,14.469    c2.29,3.303,6.775,4.214,10.171,2.066C497.93,189.138,499.031,184.695,497.03,181.211z M85.93,177.225    c-8.946-11.024-21.129-17.475-34.055-17.475c-1.756,0-3.5,0.12-5.228,0.355c21.379-28.929,47.66-53.375,77.269-71.694    c13.604-8.417,27.852-15.483,42.55-21.151c-4.84,3.644-9.59,7.584-14.235,11.829C125.514,103.506,102.773,137.233,85.93,177.225z     M256,159.75c-19.403,0-37.484,5.241-51.579,14.523c4.007-24.354,8.825-45.96,14.383-64.406c1.195-3.966-1.051-8.15-5.018-9.345    c-3.964-1.194-8.15,1.051-9.345,5.018c-6.136,20.366-11.384,44.37-15.656,71.495c-12.739-10.901-30.016-17.285-48.16-17.285    c-12.06,0-23.728,2.835-33.946,7.925c15.065-31.263,34.009-57.716,55.671-77.514c20.055-18.329,42.104-30.545,64.911-36.143    c-4.149,5.798-8.117,12.943-11.891,21.436c-1.682,3.785,0.023,8.217,3.809,9.899c3.786,1.683,8.217-0.024,9.899-3.809    C237.843,61.815,247.656,50.5,256,50.5c9.23,0,19.95,13.46,29.411,36.929c8.768,21.75,16.342,51.501,22.167,86.843    C293.483,164.991,275.403,159.75,256,159.75z M460.125,159.75c-12.928,0-25.112,6.452-34.057,17.479    c-4.59-10.902-9.627-21.397-15.064-31.318c-1.991-3.632-6.549-4.961-10.182-2.972c-3.633,1.991-4.963,6.55-2.973,10.182    c2.587,4.72,5.078,9.581,7.473,14.556c-10.218-5.091-21.887-7.926-33.948-7.926c-18.144,0-35.419,6.383-48.159,17.283    c-6.109-38.71-14.296-71.402-23.894-95.212c-4.572-11.343-9.443-20.615-14.591-27.81c35.95,8.805,69.667,34.019,97.06,73.182    c2.375,3.394,7.05,4.221,10.445,1.847c3.394-2.375,4.221-7.05,1.847-10.445c-14.607-20.883-30.976-38.091-48.559-51.34    c14.701,5.669,28.953,12.736,42.56,21.155c29.609,18.319,55.89,42.766,77.269,71.694    C463.625,159.87,461.881,159.75,460.125,159.75z"/>
	</g>
</g>
<g>
</g>
<g>
</g>
<g>
</g>
<g>
</g>
<g>
</g>
<g>
</g>
<g>
</g>
<g>
</g>
<g>
</g>
<g>
</g>
<g>
</g>
<g>
</g>
<g>
</g>
<g>
</g>
<g>
</g>
</svg>
