<?xml version="1.0" encoding="iso-8859-1"?>
<!-- Generator: Adobe Illustrator 19.0.0, SVG Export Plug-In . SVG Version: 6.00 Build 0)  -->
<svg xmlns="http://www.w3.org/2000/svg" xmlns:xlink="http://www.w3.org/1999/xlink" version="1.1" id="Layer_1" x="0px" y="0px" viewBox="0 0 512 512" style="enable-background:new 0 0 512 512;" xml:space="preserve">
<g>
	<g>
		<path d="M118.896,34.276C53.337,34.276,0,87.613,0,153.172s53.337,118.896,118.896,118.896s118.896-53.337,118.896-118.896    S184.456,34.276,118.896,34.276z M118.896,257.069C61.608,257.069,15,210.461,15,153.172S61.608,49.276,118.896,49.276    c57.288,0,103.896,46.608,103.896,103.896C222.792,210.46,176.185,257.069,118.896,257.069z"/>
	</g>
</g>
<g>
	<g>
		<path d="M264.569,0c-23.035,0-41.776,18.741-41.776,41.776s18.741,41.776,41.776,41.776c23.035,0,41.776-18.741,41.776-41.776    C306.345,18.741,287.604,0,264.569,0z M264.569,68.552c-14.764,0-26.776-12.012-26.776-26.776S249.805,15,264.569,15    c14.764,0,26.776,12.012,26.776,26.776S279.333,68.552,264.569,68.552z"/>
	</g>
</g>
<g>
	<g>
		<path d="M350.259,17.138c-13.586,0-24.638,11.053-24.638,24.638s11.052,24.638,24.638,24.638    c13.585,0,24.638-11.052,24.638-24.638S363.845,17.138,350.259,17.138z M350.259,51.414c-5.315,0-9.638-4.323-9.638-9.638    s4.323-9.638,9.638-9.638c5.314,0,9.638,4.324,9.638,9.638S355.574,51.414,350.259,51.414z"/>
	</g>
</g>
<g>
	<g>
		<path d="M181.759,137.27c-2.913-7.47-7.17-14.384-12.518-20.395V84.621c0-2.489-1.234-4.815-3.295-6.21    c-2.061-1.395-4.679-1.678-6.99-0.753l-40.059,16.024l-40.06-16.025c-2.311-0.925-4.929-0.642-6.99,0.753    c-2.061,1.395-3.295,3.722-3.295,6.21v32.255c-5.348,6.011-9.605,12.925-12.517,20.395c-12.234,1.43-21.759,11.859-21.759,24.471    s9.525,23.041,21.76,24.471c9.988,25.59,35.059,43.012,62.861,43.012s52.874-17.421,62.861-43.012    c12.234-1.43,21.76-11.859,21.76-24.471C203.518,149.129,193.993,138.7,181.759,137.27z M154.241,95.698v12.121l-15.15-6.061    L154.241,95.698z M83.552,95.698l15.15,6.061l-15.15,6.06V95.698z M178.879,171.379c-0.214,0-0.703-0.071-1.134-0.134    l-0.248-0.036c-3.691-0.534-7.219,1.73-8.269,5.313c-6.508,22.198-27.206,37.702-50.332,37.702    c-23.126,0-43.824-15.504-50.332-37.703c-1.051-3.582-4.576-5.848-8.269-5.313l-0.249,0.036c-0.431,0.063-0.919,0.134-1.133,0.134    c-5.314,0-9.638-4.324-9.638-9.638c0-5.314,4.323-9.638,9.638-9.638c0.214,0,0.702,0.071,1.133,0.134l0.249,0.036    c3.688,0.532,7.218-1.731,8.269-5.313c2.458-8.383,7.035-16.069,13.233-22.285l37.1-14.84l37.098,14.839    c6.198,6.217,10.777,13.903,13.234,22.286c1.051,3.582,4.575,5.846,8.269,5.313l0.248-0.036c0.432-0.063,0.92-0.134,1.134-0.134    c5.314,0.002,9.637,4.325,9.637,9.639C188.517,167.055,184.194,171.379,178.879,171.379z"/>
	</g>
</g>
<g>
	<g>
		<path d="M93.189,145.672c-4.142,0-7.5,3.358-7.5,7.5v8.569c0,4.142,3.358,7.5,7.5,7.5c4.142,0,7.5-3.358,7.5-7.5v-8.569    C100.689,149.03,97.331,145.672,93.189,145.672z"/>
	</g>
</g>
<g>
	<g>
		<path d="M144.604,145.672c-4.142,0-7.5,3.358-7.5,7.5v8.569c0,4.142,3.358,7.5,7.5,7.5c4.142,0,7.5-3.358,7.5-7.5v-8.569    C152.104,149.03,148.746,145.672,144.604,145.672z"/>
	</g>
</g>
<g>
	<g>
		<path d="M139.892,182.72c-2.612-3.216-7.335-3.705-10.55-1.093c-2.598,2.11-6.405,3.32-10.446,3.32s-7.848-1.21-10.446-3.32    c-3.215-2.612-7.938-2.123-10.55,1.093c-2.612,3.215-2.123,7.938,1.093,10.55c5.301,4.306,12.369,6.677,19.903,6.677    s14.602-2.371,19.903-6.677C142.014,190.659,142.504,185.935,139.892,182.72z"/>
	</g>
</g>
<g>
	<g>
		<path d="M488.335,337.579l-62.025-18.607v-20.73c19.166-14.238,32.141-36.361,34.036-61.54    c10.053-3.106,17.378-12.487,17.378-23.546c0-7.16-3.2-13.947-8.569-18.583v-49.968c0-13.785-6.965-26.682-18.387-34.433    c-3.87-14.381-16.789-24.481-31.958-24.481h-68.552c-37.21,0-67.483,30.273-67.483,67.483v41.399    c-5.37,4.636-8.569,11.423-8.569,18.583c0,11.06,7.325,20.44,17.378,23.546c1.894,25.179,14.87,47.302,34.036,61.54v20.73    l-62.024,18.607c-14.155,4.247-23.665,17.028-23.665,31.806v83.701c0,4.142,3.358,7.5,7.5,7.5h1.069V504.5    c0,4.142,3.358,7.5,7.5,7.5c4.142,0,7.5-3.358,7.5-7.5v-43.914h27.845V504.5c0,4.142,3.358,7.5,7.5,7.5c4.142,0,7.5-3.358,7.5-7.5    v-94.259c0-1.165-0.271-2.313-0.792-3.354l-17.138-34.276c-1.852-3.705-6.357-5.208-10.062-3.354    c-3.705,1.852-5.207,6.357-3.354,10.062l16.346,32.692v33.575h-36.414v-76.201c0-8.103,5.214-15.11,12.976-17.439l25.747-7.724    c8.966,37.542,43.017,64.95,82.312,64.95c20.252,0,39.848-7.267,55.178-20.462c13.545-11.659,23.016-27.281,27.125-44.491    l25.757,7.727c7.761,2.329,12.975,9.336,12.975,17.439v76.201h-1.069c-0.003,0-0.007,0-0.01,0h-35.335v-33.575l16.346-32.692    c1.853-3.705,0.351-8.21-3.354-10.062c-3.703-1.853-8.209-0.351-10.062,3.354l-17.138,34.276    c-0.521,1.042-0.792,2.189-0.792,3.354V504.5c0,4.142,3.358,7.5,7.5,7.5c4.142,0,7.5-3.358,7.5-7.5v-43.914h27.845V504.5    c0,4.142,3.358,7.5,7.5,7.5c4.142,0,7.5-3.358,7.5-7.5v-43.914h1.068c1.989,0,3.896-0.79,5.303-2.197    c1.407-1.406,2.197-3.314,2.197-5.303v-83.701C512,354.607,502.49,341.826,488.335,337.579z M306.345,230.293    c0-4.142-3.358-7.5-7.5-7.5c-5.314,0-9.638-4.323-9.638-9.638c0-3.42,1.81-6.515,4.841-8.278c0.161-0.094,0.307-0.205,0.459-0.31    c1.338-0.677,2.821-1.05,4.338-1.05h10.962c6.927,0,13.054-4.415,15.245-10.987l4.931-14.793    c17.235-0.389,70.664-2.812,100.751-17.856c3.705-1.852,5.207-6.357,3.354-10.062c-1.853-3.705-6.356-5.208-10.062-3.354    c-32.281,16.14-98.807,16.346-99.475,16.346c-3.228,0.001-6.094,2.066-7.114,5.128l-6.616,19.847    c-0.146,0.437-0.553,0.731-1.014,0.731h-10.962c-0.357,0-0.713,0.02-1.069,0.035v-35.38c0-28.939,23.544-52.483,52.483-52.483    h68.552c8.956,0,16.48,6.455,17.893,15.347c0.359,2.26,1.729,4.232,3.723,5.356c8.469,4.776,13.729,13.67,13.729,23.21v53.791    c0,2.67,1.42,5.139,3.728,6.482c3.032,1.764,4.841,4.859,4.841,8.278c0,5.314-4.323,9.638-9.638,9.638c-4.142,0-7.5,3.358-7.5,7.5    c0,38.389-31.232,69.621-69.621,69.621C337.577,299.912,306.345,268.682,306.345,230.293z M411.31,307.168v17.384    c0,19.489-15.856,35.345-35.345,35.345c-19.457,0-35.29-15.803-35.342-35.248c0-0.036-0.002-0.072-0.002-0.107v-17.373    c10.762,4.967,22.734,7.745,35.344,7.745C388.576,314.914,400.548,312.136,411.31,307.168z M421.358,377.342    c-12.61,10.853-28.73,16.831-45.393,16.831c-32.625,0-60.85-22.959-67.911-54.27l18.529-5.559    c4.57,23.088,24.971,40.553,49.381,40.553c24.41,0,44.812-17.465,49.382-40.553l18.525,5.557    C440.606,354.385,432.727,367.556,421.358,377.342z"/>
	</g>
</g>
<g>
	<g>
		<path d="M397.828,250.176c-3.217-2.61-7.94-2.117-10.549,1.1c-3.03,3.736-7.048,5.793-11.313,5.793s-8.283-2.058-11.313-5.793    c-2.608-3.217-7.331-3.709-10.549-1.1c-3.217,2.609-3.709,7.332-1.1,10.549c5.846,7.209,14.216,11.344,22.961,11.344    c8.746,0,17.116-4.135,22.963-11.344C401.537,257.508,401.045,252.785,397.828,250.176z"/>
	</g>
</g>
<g>
	<g>
		<path d="M341.689,205.655c-4.142,0-7.5,3.358-7.5,7.5v8.569c0,4.142,3.358,7.5,7.5,7.5c4.142,0,7.5-3.358,7.5-7.5v-8.569    C349.189,209.013,345.831,205.655,341.689,205.655z"/>
	</g>
</g>
<g>
	<g>
		<path d="M410.241,205.655c-4.142,0-7.5,3.358-7.5,7.5v8.569c0,4.142,3.358,7.5,7.5,7.5c4.142,0,7.5-3.358,7.5-7.5v-8.569    C417.741,209.013,414.383,205.655,410.241,205.655z"/>
	</g>
</g>
<g>
</g>
<g>
</g>
<g>
</g>
<g>
</g>
<g>
</g>
<g>
</g>
<g>
</g>
<g>
</g>
<g>
</g>
<g>
</g>
<g>
</g>
<g>
</g>
<g>
</g>
<g>
</g>
<g>
</g>
</svg>
