<?xml version="1.0" encoding="iso-8859-1"?>
<!-- Generator: Adobe Illustrator 19.0.0, SVG Export Plug-In . SVG Version: 6.00 Build 0)  -->
<svg xmlns="http://www.w3.org/2000/svg" xmlns:xlink="http://www.w3.org/1999/xlink" version="1.1" id="Layer_1" x="0px" y="0px" viewBox="0 0 512 512" style="enable-background:new 0 0 512 512;" xml:space="preserve">
<g>
	<g>
		<path d="M406.398,250.176c-3.217-2.61-7.941-2.117-10.549,1.1c-3.03,3.736-7.048,5.793-11.313,5.793    c-4.266,0-8.283-2.058-11.313-5.793c-2.608-3.217-7.332-3.709-10.549-1.1c-3.217,2.609-3.709,7.332-1.1,10.549    c5.847,7.209,14.217,11.344,22.963,11.344c8.744,0,17.114-4.135,22.961-11.344C410.107,257.508,409.615,252.785,406.398,250.176z"/>
	</g>
</g>
<g>
	<g>
		<path d="M350.26,205.655c-4.142,0-7.5,3.358-7.5,7.5v8.569c0,4.142,3.358,7.5,7.5,7.5c4.142,0,7.5-3.358,7.5-7.5v-8.569    C357.76,209.013,354.401,205.655,350.26,205.655z"/>
	</g>
</g>
<g>
	<g>
		<path d="M418.812,205.655c-4.142,0-7.5,3.358-7.5,7.5v8.569c0,4.142,3.357,7.5,7.5,7.5c4.142,0,7.5-3.358,7.5-7.5v-8.569    C426.312,209.013,422.953,205.655,418.812,205.655z"/>
	</g>
</g>
<g>
	<g>
		<path d="M491.127,353.969l-58.758-23.503c-0.317-0.127-0.611-0.288-0.909-0.445c40.583-9.235,59.803-24.676,60.656-25.375    c2.029-1.663,3.042-4.265,2.671-6.862c-0.085-0.595-8.494-60.135-8.494-118.905c0-56.11-45.649-101.759-101.759-101.759    c-56.11,0-101.757,45.65-101.757,101.759c0,58.728-8.409,118.31-8.494,118.905c-0.371,2.597,0.643,5.199,2.671,6.861    c0.853,0.699,20.072,16.14,60.656,25.375c-0.298,0.156-0.592,0.318-0.91,0.445l-58.756,23.503    c-12.681,5.072-20.875,17.174-20.875,30.832v42.583c0,1.99,0.791,3.898,2.198,5.305c1.407,1.406,3.313,2.195,5.302,2.195    c0.001,0,0.002,0,0.003,0h1.065V504.5c0,4.142,3.358,7.5,7.5,7.5c4.142,0,7.5-3.358,7.5-7.5v-69.621h19.276V504.5    c0,4.142,3.358,7.5,7.5,7.5c4.142,0,7.5-3.358,7.5-7.5v-94.259c0-4.142-3.358-7.5-7.5-7.5c-4.142,0-7.5,3.358-7.5,7.5v9.638    c0,0-26.778,0-26.779,0h-1.065V384.8c0-7.488,4.493-14.124,11.445-16.905l28.629-11.452    c10.039,31.259,39.179,52.728,72.392,52.728c33.212,0,62.353-21.469,72.391-52.728l28.629,11.452    C492.508,370.676,497,377.312,497,384.8v35.079h-27.845v-9.638c0-4.142-3.358-7.5-7.5-7.5c-4.142,0-7.5,3.358-7.5,7.5V504.5    c0,4.142,3.358,7.5,7.5,7.5c4.142,0,7.5-3.358,7.5-7.5v-69.621h19.276V504.5c0,4.142,3.358,7.5,7.5,7.5c4.142,0,7.5-3.358,7.5-7.5    v-69.621h1.069c4.142,0,7.5-3.358,7.5-7.5V384.8C512,371.144,503.807,359.042,491.127,353.969z M297.778,178.882    c-0.001-47.841,38.919-86.761,86.758-86.761s86.758,38.92,86.758,86.759c0,50.338,6.059,101.221,8.032,116.454    c-6.792,4.407-24.154,14.137-53.015,20.468v-11.933c3.984-2.258,7.798-4.835,11.384-7.733    c14.758-11.929,25.187-28.636,29.363-47.042c1.392-6.133,2.098-12.458,2.098-18.799c0-42.391-30.657-48.477-60.305-54.363    c-18.865-3.745-38.372-7.618-53.906-20.045c-1.769-1.415-4.083-1.955-6.294-1.469c-2.212,0.486-4.086,1.945-5.099,3.971    c-0.151,0.301-15.639,30.13-36.137,30.13c-3.46,0-6.754,0.72-9.745,2.014C297.737,186.657,297.778,182.768,297.778,178.882z     M384.533,299.913c-16.108,0-31.229-5.34-43.729-15.444c-12.148-9.82-20.73-23.563-24.165-38.696    c-1.145-5.046-1.726-10.254-1.726-15.48c0-4.142-3.358-7.5-7.5-7.5c-5.314,0-9.638-4.323-9.638-9.638s4.323-9.638,9.638-9.638    c21.936,0,37.868-19.706,45.154-30.911c16.876,10.794,36.125,14.615,53.361,18.037c31.689,6.291,48.226,10.913,48.226,39.65    c0,5.226-0.581,10.434-1.726,15.48c-3.435,15.134-12.016,28.876-24.165,38.696C415.763,294.573,400.641,299.913,384.533,299.913z     M289.744,295.335c1.22-9.412,3.998-32.442,5.944-60.538c1.415,0.77,2.903,1.421,4.467,1.905    c0.314,4.181,0.935,8.328,1.857,12.391c4.177,18.407,14.605,35.113,29.363,47.042c3.586,2.898,7.4,5.476,11.384,7.734v11.932    C313.881,309.467,296.518,299.73,289.744,295.335z M384.536,394.172c-27.015,0-50.685-17.682-58.436-43.31l16.172-6.469    c9.409-3.763,15.488-12.743,15.488-22.876v-10.983c8.586,2.864,17.631,4.379,26.776,4.379c9.145,0,18.189-1.515,26.776-4.379    v10.983c0,10.133,6.079,19.113,15.487,22.875l16.173,6.469C435.221,376.49,411.55,394.172,384.536,394.172z"/>
	</g>
</g>
<g>
	<g>
		<path d="M118.896,34.276C53.337,34.276,0,87.613,0,153.172s53.337,118.896,118.896,118.896s118.896-53.337,118.896-118.896    S184.456,34.276,118.896,34.276z M118.896,257.069C61.609,257.069,15,210.461,15,153.172S61.609,49.276,118.896,49.276    c57.288,0,103.896,46.608,103.896,103.896C222.792,210.46,176.185,257.069,118.896,257.069z"/>
	</g>
</g>
<g>
	<g>
		<path d="M264.57,0c-23.035,0-41.776,18.741-41.776,41.776s18.741,41.776,41.776,41.776c23.035,0,41.776-18.741,41.776-41.776    C306.346,18.741,287.604,0,264.57,0z M264.57,68.552c-14.764,0-26.776-12.012-26.776-26.776S249.805,15,264.57,15    c14.764,0,26.776,12.012,26.776,26.776S279.333,68.552,264.57,68.552z"/>
	</g>
</g>
<g>
	<g>
		<path d="M350.26,17.138c-13.586,0-24.638,11.053-24.638,24.638s11.052,24.638,24.638,24.638c13.585,0,24.638-11.052,24.638-24.638    S363.846,17.138,350.26,17.138z M350.26,51.414c-5.315,0-9.638-4.323-9.638-9.638s4.323-9.638,9.638-9.638    c5.314,0,9.638,4.324,9.638,9.638S355.575,51.414,350.26,51.414z"/>
	</g>
</g>
<g>
	<g>
		<path d="M181.758,137.27c-9.988-25.59-35.059-43.011-62.862-43.011c-3.2,0-6.361,0.241-9.469,0.688    c-0.106-0.571-0.168-1.157-0.168-1.758c0-5.314,4.323-9.638,9.638-9.638c4.142,0,7.5-3.358,7.5-7.5c0-4.142-3.358-7.5-7.5-7.5    c-13.585,0-24.638,11.052-24.638,24.638c0,1.91,0.226,3.767,0.639,5.553c-17.512,6.742-31.878,20.632-38.862,38.528    c-12.234,1.43-21.76,11.859-21.76,24.471s9.525,23.042,21.76,24.471c9.988,25.59,35.059,43.012,62.861,43.012    s52.874-17.421,62.861-43.012c12.234-1.43,21.76-11.859,21.76-24.471C203.518,149.129,193.993,138.7,181.758,137.27z     M178.88,171.379c-0.214,0-0.703-0.071-1.134-0.135l-0.248-0.036c-3.691-0.534-7.219,1.73-8.269,5.313    c-6.508,22.198-27.206,37.702-50.332,37.702c-23.126,0-43.824-15.504-50.332-37.703c-0.948-3.231-3.909-5.39-7.191-5.39    c-0.356,0-0.716,0.025-1.078,0.078l-0.249,0.036c-0.431,0.063-0.919,0.134-1.133,0.134c-5.314,0-9.638-4.324-9.638-9.638    c0-5.314,4.323-9.638,9.638-9.638c0.214,0,0.702,0.071,1.133,0.134l0.249,0.036c3.688,0.532,7.218-1.731,8.269-5.313    c4.945-16.865,18.082-29.857,34.249-35.131c4.319,3.732,9.94,5.997,16.083,5.997c4.142,0,7.5-3.358,7.5-7.5    c0-0.174-0.014-0.344-0.026-0.515c20.002,2.924,37.061,17.375,42.858,37.148c1.05,3.583,4.573,5.847,8.269,5.313l0.248-0.036    c0.432-0.063,0.92-0.135,1.134-0.135c5.315,0.004,9.638,4.327,9.638,9.641C188.518,167.055,184.195,171.379,178.88,171.379z"/>
	</g>
</g>
<g>
	<g>
		<path d="M93.19,145.672c-4.142,0-7.5,3.358-7.5,7.5v8.569c0,4.142,3.358,7.5,7.5,7.5c4.142,0,7.5-3.358,7.5-7.5v-8.569    C100.69,149.03,97.331,145.672,93.19,145.672z"/>
	</g>
</g>
<g>
	<g>
		<path d="M144.604,145.672c-4.142,0-7.5,3.358-7.5,7.5v8.569c0,4.142,3.358,7.5,7.5,7.5c4.142,0,7.5-3.358,7.5-7.5v-8.569    C152.104,149.03,148.747,145.672,144.604,145.672z"/>
	</g>
</g>
<g>
	<g>
		<path d="M139.893,182.72c-2.611-3.216-7.334-3.705-10.55-1.093c-2.598,2.11-6.405,3.32-10.446,3.32s-7.848-1.21-10.446-3.32    c-3.215-2.612-7.938-2.123-10.55,1.093c-2.612,3.215-2.123,7.938,1.093,10.55c5.301,4.306,12.369,6.677,19.903,6.677    s14.602-2.371,19.903-6.677C142.014,190.659,142.505,185.935,139.893,182.72z"/>
	</g>
</g>
<g>
</g>
<g>
</g>
<g>
</g>
<g>
</g>
<g>
</g>
<g>
</g>
<g>
</g>
<g>
</g>
<g>
</g>
<g>
</g>
<g>
</g>
<g>
</g>
<g>
</g>
<g>
</g>
<g>
</g>
</svg>
