<?xml version="1.0" encoding="iso-8859-1"?>
<!-- Generator: Adobe Illustrator 19.0.0, SVG Export Plug-In . SVG Version: 6.00 Build 0)  -->
<svg xmlns="http://www.w3.org/2000/svg" xmlns:xlink="http://www.w3.org/1999/xlink" version="1.1" id="Layer_1" x="0px" y="0px" viewBox="0 0 512 512" style="enable-background:new 0 0 512 512;" xml:space="preserve">
<g>
	<g>
		<path d="M158.375,133.125c-4.142,0-7.5,3.358-7.5,7.5v8.875c0,4.142,3.358,7.5,7.5,7.5c4.142,0,7.5-3.358,7.5-7.5v-8.875    C165.875,136.483,162.517,133.125,158.375,133.125z"/>
	</g>
</g>
<g>
	<g>
		<path d="M247.125,133.125c-4.142,0-7.5,3.358-7.5,7.5v8.875c0,4.142,3.358,7.5,7.5,7.5c4.142,0,7.5-3.358,7.5-7.5v-8.875    C254.625,136.483,251.267,133.125,247.125,133.125z"/>
	</g>
</g>
<g>
	<g>
		<path d="M235.169,197.988c-2.63-3.2-7.357-3.662-10.556-1.032c-5.543,4.556-13.512,7.169-21.863,7.169s-16.32-2.613-21.863-7.169    c-3.199-2.63-7.926-2.168-10.556,1.032c-2.63,3.2-2.168,7.926,1.032,10.556c8.301,6.823,19.448,10.581,31.387,10.581    c11.939,0,23.086-3.758,31.387-10.581C237.337,205.914,237.799,201.188,235.169,197.988z"/>
	</g>
</g>
<g>
	<g>
		<path d="M376.1,374.425c-3.217-2.61-7.94-2.117-10.549,1.1c-3.19,3.934-7.425,6.1-11.925,6.1s-8.735-2.166-11.925-6.1    c-2.608-3.216-7.332-3.709-10.549-1.1c-3.217,2.609-3.709,7.332-1.1,10.549c6.005,7.404,14.598,11.65,23.575,11.65    c8.977,0,17.569-4.247,23.575-11.65C379.809,381.757,379.316,377.034,376.1,374.425z"/>
	</g>
</g>
<g>
	<g>
		<path d="M477.875,301.75h-37.242c-3.789-39.779-37.378-71-78.133-71h-17.75c-30.055,0-56.206,16.986-69.392,41.855l-3.367-10.102    c-0.753-2.258-2.533-4.025-4.796-4.761c-1.209-0.393-2.478-0.457-3.694-0.23v-2.682c5.87-3.71,11.434-7.974,16.611-12.771    c19.298-17.878,31.714-41.615,35.403-67.432c13.629-1.207,25.167-11.276,27.414-24.363c1.455-8.474-0.73-16.677-5.451-23.001    c8.825-5.195,14.772-14.843,14.772-25.871c0-9.337-4.401-18.005-11.515-23.579c1.728-3.828,2.64-7.987,2.64-12.223    c0-15.85-12.276-28.863-27.743-29.876C312.45,25.323,302.835,17.75,291.5,17.75c-3.429,0-6.699,0.696-9.683,1.95    C264.075,7.239,242.25,0,220.5,0H185c-21.767,0-43.56,7.227-61.307,19.704c-2.986-1.257-6.26-1.954-9.693-1.954    c-11.335,0-20.95,7.573-24.132,17.965c-15.467,1.013-27.743,14.027-27.743,29.876c0,4.236,0.913,8.395,2.64,12.223    c-7.114,5.574-11.515,14.242-11.515,23.579c0,11.03,5.949,20.678,14.777,25.873c-4.721,6.325-6.91,14.525-5.455,22.999    c2.247,13.087,13.785,23.157,27.414,24.363c3.689,25.816,16.105,49.553,35.403,67.432c5.178,4.797,10.741,9.061,16.611,12.771    v2.681c-1.217-0.227-2.485-0.163-3.694,0.23c-2.263,0.736-4.043,2.502-4.796,4.761l-7.606,22.817l-61.053,16.651    c-22.507,6.138-38.226,26.718-38.226,50.047V504.5c0,4.142,3.358,7.5,7.5,7.5c4.142,0,7.5-3.358,7.5-7.5V352.019    c0-6.933,1.959-13.52,5.4-19.162l48.684,56.218c1.237,1.73,1.916,3.84,1.916,5.967V504.5c0,4.142,3.358,7.5,7.5,7.5    c4.142,0,7.5-3.358,7.5-7.5V395.042c0-5.427-1.793-10.807-5.049-15.149c-0.105-0.141-0.216-0.277-0.331-0.41l-49.895-57.65    c3.411-2.398,7.262-4.247,11.447-5.389l39.38-10.74c5.642,12.11,33.228,66.572,90.213,107.275    c1.304,0.931,2.832,1.397,4.359,1.397c1.527,0,3.055-0.466,4.359-1.397c21.964-15.688,41.88-35.098,59.315-57.754    c4.388,3.68,10.039,5.901,16.2,5.901H284v1.375c0,25.997,14.332,48.697,35.5,60.654v12.824c0,0.593-0.378,1.117-0.94,1.305    l-28.976,9.659c-13.957,4.652-23.334,17.663-23.334,32.374V504.5c0,4.142,3.358,7.5,7.5,7.5c4.142,0,7.5-3.358,7.5-7.5v-25.185    c0-8.245,5.255-15.536,13.077-18.144l8.715-2.905c11.209,16.838,30.144,27.108,50.583,27.108    c20.461,0,39.376-10.264,50.584-27.108l8.714,2.905c7.822,2.607,13.077,9.898,13.077,18.144V504.5c0,4.142,3.358,7.5,7.5,7.5    c4.142,0,7.5-3.358,7.5-7.5v-25.185c0-14.711-9.377-27.722-23.334-32.374l-28.976-9.659c-0.562-0.188-0.94-0.712-0.94-1.305    v-12.824c21.168-11.957,35.5-34.656,35.5-60.654v-1.375h1.375c13.923,0,25.25-11.327,25.25-25.25    c0-7.378-3.316-14.371-8.875-19.125h36.875c4.142,0,7.5-3.358,7.5-7.5C485.375,305.107,482.017,301.75,477.875,301.75z     M265.345,290.001l-27.578,34.472c-0.467,0.584-1.3,0.689-1.898,0.241l-20.422-15.316l45.524-32.517L265.345,290.001z     M202.75,300.033L157,267.354v-4.552c14.276,6.265,29.811,9.572,45.75,9.572c15.939,0,31.474-3.307,45.75-9.572v4.552    L202.75,300.033z M291.5,32.878c5.535,0,10.059,4.447,10.244,9.984c-0.019,0.191-0.033,0.407-0.038,0.645    c-0.05,2.302,0.941,4.501,2.694,5.975s4.077,2.064,6.313,1.6c0.973-0.201,1.974-0.304,2.975-0.304    c8.099,0,14.688,6.645,14.688,14.812c0,4.573-2.067,7.862-3.8,9.816c-1.658,1.869-2.29,4.444-1.688,6.877    c0.602,2.433,2.361,4.406,4.695,5.269c5.783,2.137,9.667,7.699,9.667,13.84c0,8.167-6.589,14.812-14.688,14.812    s-14.688-6.645-14.688-14.812c0-4.573,2.067-7.862,3.8-9.816c1.658-1.869,2.29-4.444,1.688-6.877    c-0.602-2.433-2.361-4.406-4.695-5.269C302.884,77.293,299,71.731,299,65.59c0-1.009,0.102-2.018,0.301-3    c0.459-2.255-0.125-4.598-1.587-6.366c-1.427-1.725-3.538-2.719-5.759-2.719c-0.055,0-0.11,0-0.166,0.002    c-0.236,0.005-0.449,0.02-0.639,0.038c-5.491-0.187-9.9-4.749-9.9-10.331C281.25,37.515,285.848,32.878,291.5,32.878z     M68.25,101.393c0-6.141,3.885-11.703,9.667-13.84c2.334-0.863,4.093-2.836,4.695-5.269s-0.029-5.008-1.688-6.877    c-1.733-1.954-3.8-5.243-3.8-9.816c0-8.167,6.589-14.812,14.688-14.812c1,0,2.001,0.102,2.975,0.304    c2.236,0.464,4.559-0.126,6.313-1.6c1.753-1.474,2.745-3.674,2.694-5.975c-0.005-0.238-0.02-0.453-0.038-0.645    c0.185-5.538,4.709-9.985,10.244-9.985c5.652,0,10.25,4.637,10.25,10.337c0,5.582-4.41,10.144-9.9,10.331    c-0.189-0.019-0.403-0.033-0.64-0.038c-2.287-0.058-4.463,0.949-5.925,2.717c-1.462,1.768-2.046,4.111-1.587,6.366    c0.2,0.981,0.301,1.991,0.301,3c0,6.141-3.885,11.703-9.667,13.84c-2.334,0.863-4.093,2.836-4.695,5.269    c-0.602,2.433,0.029,5.008,1.688,6.877c1.733,1.954,3.8,5.243,3.8,9.816c0,8.167-6.589,14.812-14.688,14.812    S68.25,109.561,68.25,101.393z M135.583,231.056c-18.215-16.875-29.37-39.754-31.41-64.424c-0.322-3.889-3.572-6.882-7.475-6.882    h-3.963c-7.591,0-14.203-5.169-15.38-12.023c-1.321-7.695,3.35-14.924,10.709-16.85c13.934-2.458,24.561-14.739,24.561-29.484    c0-4.236-0.913-8.395-2.64-12.223c6.613-5.181,10.881-13.036,11.45-21.616c10.306-3.209,17.815-12.906,17.815-24.339    c0-4.907-1.387-9.492-3.781-13.384C150.181,20.125,167.242,15,185,15h35.5c17.757,0,34.818,5.125,49.531,14.831    c-2.394,3.892-3.781,8.477-3.781,13.384c0,11.432,7.509,21.13,17.815,24.339c0.569,8.58,4.837,16.436,11.45,21.616    c-1.728,3.828-2.64,7.987-2.64,12.223c0,14.745,10.627,27.026,24.561,29.484c7.359,1.926,12.03,9.154,10.708,16.85    c-1.176,6.854-7.788,12.023-15.379,12.023h-3.963c-3.902,0-7.153,2.993-7.475,6.882c-2.041,24.67-13.195,47.55-31.41,64.424    c-18.32,16.972-42.174,26.319-67.167,26.319S153.902,248.028,135.583,231.056z M144.529,276.88l45.524,32.517l-20.422,15.316    c-0.598,0.449-1.432,0.342-1.898-0.241L140.155,290L144.529,276.88z M266.25,316.75c-5.559,4.754-8.875,11.746-8.875,19.125    c0,1.925,0.224,3.798,0.634,5.601c-16.207,21.928-34.762,40.779-55.258,56.108c-47.546-35.599-72.861-81.806-79.839-95.9    l6.059-1.653l27.049,33.812c3.245,4.056,7.977,6.173,12.771,6.173c3.421,0,6.875-1.079,9.84-3.303l16.619-12.464v47.125    c0,4.142,3.358,7.5,7.5,7.5c4.142,0,7.5-3.358,7.5-7.5V324.25l16.619,12.464c2.965,2.224,6.418,3.303,9.84,3.303    c4.794,0,9.527-2.118,12.771-6.173l16.77-20.963V316.75z M344.75,245.75h17.75c32.477,0,59.338,24.507,63.06,56H281.69    C285.412,270.257,312.273,245.75,344.75,245.75z M389.263,453.285c-8.601,10.69-21.633,17.09-35.638,17.09    c-13.99,0-27.031-6.404-35.635-17.091l5.313-1.771c6.697-2.232,11.197-8.476,11.197-15.535v-6.545    c6.081,1.74,12.492,2.692,19.125,2.692s13.044-0.952,19.125-2.692v6.545c0,7.06,4.5,13.303,11.197,15.535L389.263,453.285z     M424.625,346.125h-8.875c-4.142,0-7.5,3.358-7.5,7.5v8.875c0,30.12-24.505,54.625-54.625,54.625S299,392.62,299,362.5v-8.875    c0-4.142-3.358-7.5-7.5-7.5h-8.875c-5.652,0-10.25-4.598-10.25-10.25c0-3.638,1.924-6.93,5.147-8.806    c2.308-1.343,3.728-3.812,3.728-6.482v-3.837H426v3.837c0,2.67,1.42,5.139,3.728,6.482c3.223,1.876,5.147,5.168,5.147,8.806    C434.875,341.527,430.277,346.125,424.625,346.125z"/>
	</g>
</g>
<g>
	<g>
		<circle cx="327.02" cy="344.77" r="7.5"/>
	</g>
</g>
<g>
	<g>
		<circle cx="380.27" cy="344.77" r="7.5"/>
	</g>
</g>
<g>
</g>
<g>
</g>
<g>
</g>
<g>
</g>
<g>
</g>
<g>
</g>
<g>
</g>
<g>
</g>
<g>
</g>
<g>
</g>
<g>
</g>
<g>
</g>
<g>
</g>
<g>
</g>
<g>
</g>
</svg>
