<?xml version="1.0" encoding="iso-8859-1"?>
<!-- Generator: Adobe Illustrator 19.0.0, SVG Export Plug-In . SVG Version: 6.00 Build 0)  -->
<svg xmlns="http://www.w3.org/2000/svg" xmlns:xlink="http://www.w3.org/1999/xlink" version="1.1" id="Layer_1" x="0px" y="0px" viewBox="0 0 512 512" style="enable-background:new 0 0 512 512;" xml:space="preserve">
<g>
	<g>
		<path d="M123.55,395.275l-21.3-28.4c-2.485-3.313-7.186-3.985-10.5-1.5c-3.313,2.485-3.985,7.186-1.5,10.5l21.3,28.4    c2.467,3.289,3.825,7.364,3.825,11.475v88.75c0,4.142,3.358,7.5,7.5,7.5c4.142,0,7.5-3.358,7.5-7.5v-88.75    C130.375,408.415,127.951,401.144,123.55,395.275z"/>
	</g>
</g>
<g>
	<g>
		<path d="M244.044,224.613c-2.63-3.2-7.357-3.662-10.556-1.031c-5.543,4.556-13.511,7.169-21.863,7.169s-16.32-2.613-21.863-7.169    c-3.199-2.63-7.926-2.167-10.556,1.031c-2.63,3.2-2.168,7.926,1.032,10.556c8.301,6.823,19.448,10.581,31.387,10.581    c11.939,0,23.086-3.758,31.387-10.581C246.212,232.539,246.674,227.813,244.044,224.613z"/>
	</g>
</g>
<g>
	<g>
		<path d="M167.25,168.625c-4.142,0-7.5,3.358-7.5,7.5V185c0,4.142,3.358,7.5,7.5,7.5c4.142,0,7.5-3.358,7.5-7.5v-8.875    C174.75,171.983,171.392,168.625,167.25,168.625z"/>
	</g>
</g>
<g>
	<g>
		<path d="M256,168.625c-4.142,0-7.5,3.358-7.5,7.5V185c0,4.142,3.358,7.5,7.5,7.5c4.142,0,7.5-3.358,7.5-7.5v-8.875    C263.5,171.983,260.142,168.625,256,168.625z"/>
	</g>
</g>
<g>
	<g>
		<path d="M384.974,374.425c-3.216-2.609-7.939-2.117-10.549,1.101c-3.19,3.933-7.425,6.099-11.925,6.099s-8.735-2.166-11.925-6.099    c-2.609-3.217-7.333-3.709-10.549-1.101c-3.217,2.609-3.71,7.332-1.101,10.549c6.005,7.404,14.598,11.651,23.575,11.651    c8.977,0,17.57-4.247,23.575-11.651C388.684,381.757,388.191,377.034,384.974,374.425z"/>
	</g>
</g>
<g>
	<g>
		<path d="M432.125,362.5v-1.375h1.375c13.923,0,25.25-11.327,25.25-25.25c0-7.378-3.316-14.371-8.875-19.125v-7.5    c0-23.68-9.667-46.368-26.625-62.789v-34.836c0-2.599-1.346-5.013-3.557-6.38c-2.211-1.366-4.973-1.49-7.297-0.328L362.5,229.865    l-46.52-23.26c0.19-1.57,0.349-3.149,0.469-4.739c17.382-19.359,26.926-44.157,26.926-70.116C343.375,59.103,284.272,0,211.625,0    S79.875,59.103,79.875,131.75c0,25.959,9.542,50.755,26.924,70.114c0.574,7.667,1.963,15.094,4.078,22.196    C97.869,228.976,88.75,241.627,88.75,256c0,2.976,0.407,5.922,1.214,8.812C78.259,272.726,71,286.035,71,300.375    c0,10.001,3.555,19.658,9.795,27.283c-17.24,13.003-27.545,33.306-27.545,55.488V504.5c0,4.142,3.358,7.5,7.5,7.5    c4.142,0,7.5-3.358,7.5-7.5V383.145c0-20.824,11.57-39.545,30.196-48.858l10.135-5.067c11.662,14.605,26.472,26.74,43.061,35.237    c18.678,9.567,38.859,14.417,59.984,14.417c24.785,0,48.778-6.882,69.659-19.917c3.126,1.389,6.581,2.167,10.216,2.167h1.375    v1.375c0,25.997,14.332,48.697,35.5,60.654v12.824c0,0.593-0.378,1.117-0.94,1.305l-28.976,9.659    c-13.957,4.652-23.334,17.663-23.334,32.374V504.5c0,4.142,3.358,7.5,7.5,7.5c4.142,0,7.5-3.358,7.5-7.5v-25.185    c0-8.245,5.255-15.536,13.077-18.144l8.715-2.905c11.209,16.838,30.144,27.108,50.583,27.108    c20.461,0,39.376-10.264,50.584-27.108l8.714,2.905c7.822,2.607,13.077,9.898,13.077,18.144V504.5c0,4.142,3.358,7.5,7.5,7.5    c4.142,0,7.5-3.358,7.5-7.5v-25.185c0-14.711-9.377-27.722-23.334-32.374l-28.976-9.659c-0.562-0.188-0.94-0.712-0.94-1.305    v-12.824C417.793,411.197,432.125,388.497,432.125,362.5z M408.25,223.76v28.979l-28.979-14.49L408.25,223.76z M316.75,223.76    l28.979,14.49l-28.979,14.49V223.76z M94.875,131.75C94.875,67.374,147.249,15,211.625,15s116.75,52.374,116.75,116.75    c0,16.806-4.672,33.048-13.386,47.145c-8.118-31.783-42.974-39.759-76.821-47.504c-23.438-5.363-47.674-10.909-66.757-23.632    c-3.401-2.267-8.004-1.375-10.335,1.984c-0.131,0.189-13.487,19.124-43.741,35.673c-3.634,1.988-4.969,6.545-2.981,10.179    c1.987,3.634,6.545,4.969,10.179,2.98c23.534-12.873,37.778-27.044,44.42-34.699c20.275,11.703,44.378,17.219,65.869,22.136    c7.201,1.648,13.906,3.234,20.091,4.889c-13.563,0.428-25.154,8.801-30.256,20.615c-3.943-1.87-8.385-2.893-13.032-2.893    c-4.647,0-9.088,1.023-13.032,2.893c-5.238-12.13-17.313-20.643-31.343-20.643c-18.816,0-34.125,15.308-34.125,34.125    s15.309,34.125,34.125,34.125c17.878,0,32.579-13.823,34.002-31.341c2.476-2.594,6.283-4.159,10.373-4.159    c4.09,0,7.897,1.566,10.373,4.159c1.423,17.518,16.124,31.341,34.002,31.341c18.816,0,34.125-15.308,34.125-34.125    c0-10.583-4.842-20.056-12.428-26.32c15.409,7.116,24.053,17.151,24.053,35.195c0,49.695-40.43,90.125-90.125,90.125    c-48.146,0-87.687-37.635-90.018-85.679c-0.1-2.055-1.036-3.957-2.557-5.285C103.456,176.267,94.875,154.527,94.875,131.75z     M275.125,185c0,10.546-8.58,19.125-19.125,19.125c-10.544,0-19.123-8.577-19.125-19.121c0-0.005,0-0.01,0-0.015    c0.006-10.541,8.583-19.114,19.124-19.114C266.545,165.875,275.125,174.454,275.125,185z M186.375,185.004    c-0.002,10.544-8.581,19.121-19.125,19.121c-10.545,0-19.125-8.579-19.125-19.125s8.58-19.125,19.125-19.125    c10.542,0,19.118,8.573,19.124,19.114C186.374,184.994,186.375,184.999,186.375,185.004z M93.848,319.815    C88.819,314.633,86,307.76,86,300.375c0-10.881,6.446-20.856,16.423-25.414c1.866-0.853,3.302-2.433,3.972-4.372    c0.67-1.939,0.516-4.069-0.425-5.892c-1.473-2.851-2.22-5.777-2.22-8.698c0-8.07,5.13-15.157,12.434-17.901    c9.093,19.654,24.063,35.952,42.622,46.728c-0.954,2.073-2.586,3.804-4.721,4.871L93.848,319.815z M211.625,363.875    c-34.873,0-67.046-15.05-89.298-41.528l18.985-9.493c18.187,19.46,43.523,30.521,70.312,30.521    c21.08,0,41.048-6.734,57.441-18.974c-1.815,3.506-2.816,7.431-2.816,11.474c0,4.582,1.233,8.878,3.375,12.586    C252.022,358.561,232.132,363.875,211.625,363.875z M275.89,296.847c-15.527,20.036-38.951,31.528-64.265,31.528    c-21.105,0-41.144-8.134-56.205-22.574l5.372-2.686c5.157-2.579,9.131-6.724,11.498-11.698c12.16,4.893,25.44,7.583,39.335,7.583    c28.438,0,54.273-11.352,73.216-29.761c-4.408,8.559-7.392,17.826-8.794,27.425C275.995,296.726,275.94,296.783,275.89,296.847z     M398.138,453.285c-8.601,10.69-21.632,17.09-35.638,17.09c-13.99,0-27.031-6.404-35.635-17.091l5.313-1.771    c6.697-2.232,11.197-8.476,11.197-15.535v-6.545c6.081,1.74,12.492,2.692,19.125,2.692s13.044-0.952,19.125-2.692v6.545    c0,7.06,4.5,13.303,11.197,15.535L398.138,453.285z M361.651,417.119c-29.973-0.458-53.776-25.472-53.776-55.448v-8.046    c0-4.142-3.358-7.5-7.5-7.5h-8.57c-5.248,0-9.874-3.819-10.484-9.032c-0.481-4.111,1.496-7.941,5.076-10.024    c0.007-0.004,0.014-0.008,0.021-0.012c1.606-0.943,3.367-1.582,5.228-1.657c8.194-0.331,21.305-1.148,36.611-3.167    c34.339-4.528,61.965-12.635,82.119-24.096c3.33-1.894,4.913-5.99,3.424-9.52c-1.785-4.232-6.786-5.837-10.647-3.628    c-36.05,20.6-92.766,24.649-113.029,25.443v-1.182c0-14.638,4.477-28.809,12.578-40.717c0.613,1.097,1.5,2.04,2.604,2.722    c1.205,0.744,2.572,1.12,3.943,1.12c1.146,0,2.295-0.263,3.354-0.792l49.896-24.948l49.896,24.948    c1.059,0.529,2.208,0.792,3.354,0.792c1.372,0,2.739-0.376,3.943-1.12c1.104-0.682,1.991-1.625,2.604-2.722    c8.101,11.909,12.578,26.079,12.578,40.717v11.337c0,2.729,1.53,5.158,3.868,6.566c3.411,2.053,5.322,5.713,4.964,9.665    c-0.484,5.336-5.181,9.307-10.539,9.307c-2.553,0-5.709,0-8.545,0c-4.142,0-7.499,3.358-7.499,7.5v8.875    C417.125,392.903,392.158,417.584,361.651,417.119z"/>
	</g>
</g>
<g>
	<g>
		<circle cx="335.87" cy="344.75" r="7.5"/>
	</g>
</g>
<g>
	<g>
		<circle cx="389.12" cy="344.75" r="7.5"/>
	</g>
</g>
<g>
</g>
<g>
</g>
<g>
</g>
<g>
</g>
<g>
</g>
<g>
</g>
<g>
</g>
<g>
</g>
<g>
</g>
<g>
</g>
<g>
</g>
<g>
</g>
<g>
</g>
<g>
</g>
<g>
</g>
</svg>
