<?xml version="1.0" encoding="iso-8859-1"?>
<!-- Generator: Adobe Illustrator 19.0.0, SVG Export Plug-In . SVG Version: 6.00 Build 0)  -->
<svg xmlns="http://www.w3.org/2000/svg" xmlns:xlink="http://www.w3.org/1999/xlink" version="1.1" id="Layer_1" x="0px" y="0px" viewBox="0 0 512.002 512.002" style="enable-background:new 0 0 512.002 512.002;" xml:space="preserve">
<g>
	<g>
		<path d="M191.734,145.672c-4.142,0-7.5,3.358-7.5,7.5v8.569c0,4.142,3.358,7.5,7.5,7.5c4.142,0,7.5-3.358,7.5-7.5v-8.569    C199.234,149.03,195.876,145.672,191.734,145.672z"/>
	</g>
</g>
<g>
	<g>
		<path d="M277.423,145.672c-4.142,0-7.5,3.358-7.5,7.5v8.569c0,4.143,3.358,7.5,7.5,7.5c4.142,0,7.5-3.358,7.5-7.5v-8.569    C284.923,149.03,281.565,145.672,277.423,145.672z"/>
	</g>
</g>
<g>
	<g>
		<path d="M266.08,208.393c-2.63-3.2-7.357-3.662-10.556-1.032c-5.307,4.362-12.941,6.863-20.945,6.863    c-8.004,0-15.638-2.501-20.945-6.863c-3.201-2.63-7.927-2.167-10.556,1.032c-2.63,3.2-2.168,7.926,1.032,10.556    c8.062,6.626,18.882,10.275,30.469,10.275c11.587,0,22.407-3.649,30.469-10.275C268.248,216.319,268.71,211.593,266.08,208.393z"/>
	</g>
</g>
<g>
	<g>
		<path d="M353.476,131.044V76.052c0-21.101-11.154-40.347-29.301-50.898C317.582,9.992,302.593,0,285.992,0h-85.689    c-46.66,0-84.621,37.961-84.621,84.621v46.424c-10.214,4.573-17.138,14.86-17.138,26.413c0,15.282,11.914,27.834,26.942,28.855    c3.619,24.879,15.615,47.748,34.223,64.987c4.975,4.609,10.319,8.71,15.956,12.282v26.694c0,1.005,0.034,2.006,0.085,3.003    l-75.942,23.367c-21.257,6.541-35.54,25.878-35.54,48.119v71.183c0,6.152,3.479,11.501,8.569,14.201V504.5    c0,4.142,3.358,7.5,7.5,7.5c4.142,0,7.5-3.358,7.5-7.5v-52.483h44.982V504.5c0,4.142,3.358,7.5,7.5,7.5c4.142,0,7.5-3.358,7.5-7.5    v-97.115c0-5.296-1.75-10.545-4.927-14.783l-22.279-29.706c-2.485-3.313-7.186-3.985-10.5-1.5c-3.313,2.485-3.985,7.186-1.5,10.5    l22.279,29.705c1.243,1.658,1.928,3.711,1.928,5.783v29.632H80.337c-0.59,0-1.069-0.479-1.069-1.069v-71.183    c0-15.613,10.027-29.189,24.951-33.781l74.245-22.845c4.413,13.799,13.832,25.767,26.708,33.197    c1.181,0.681,2.47,1.005,3.742,1.005c2.592,0,5.114-1.346,6.503-3.753c2.07-3.588,0.84-8.174-2.748-10.244    c-13.573-7.832-22.004-22.418-22.004-38.067v-18.745c13.717,5.961,28.623,9.107,43.914,9.107    c27.858,0,54.447-10.419,74.869-29.339c18.608-17.239,30.605-40.108,34.224-64.987c15.028-1.021,26.942-13.573,26.942-28.855    C370.614,145.904,363.69,135.617,353.476,131.044z M341.69,171.38h-4.717c-3.902,0-7.153,2.993-7.475,6.882    c-1.965,23.755-12.706,45.786-30.245,62.034c-17.64,16.342-40.609,25.342-64.675,25.342c-24.066,0-47.035-9-64.675-25.342    c-17.54-16.249-28.281-38.28-30.245-62.034c-0.322-3.889-3.572-6.882-7.475-6.882h-4.717c-7.677,0-13.922-6.246-13.922-13.923    c0-6.406,4.424-11.991,10.589-13.505l19.686-0.331c6.011-0.101,11.414-3.504,14.102-8.88l12.23-24.46    c0.199-0.397,0.555-0.621,0.961-0.59c10.881,0.752,32.879,1.736,57.938-0.119c31.894-2.361,57.946-8.499,77.434-18.243    c3.705-1.853,5.207-6.357,3.354-10.062c-1.853-3.705-6.356-5.207-10.062-3.354C257.982,98.809,191.52,96.065,172.147,94.726    c-6.465-0.446-12.503,3.027-15.412,8.847l-12.23,24.46c-0.179,0.357-0.538,0.584-0.938,0.59l-12.885,0.217V84.621    c0-38.389,31.232-69.621,69.621-69.621h85.689c11.245,0,21.343,7.201,25.127,17.918c0.634,1.796,1.927,3.283,3.618,4.16    c14.642,7.599,23.738,22.532,23.738,38.974v60.415c0,3.567,2.512,6.64,6.008,7.35c6.449,1.309,11.13,7.046,11.13,13.64    C355.613,165.134,349.367,171.38,341.69,171.38z"/>
	</g>
</g>
<g>
	<g>
		<path d="M447.734,333.121c0-22.603-8.802-43.853-24.785-59.836c-15.983-15.983-37.233-24.785-59.836-24.785    c-22.603,0-43.853,8.802-59.835,24.785l-94.259,94.259c-32.993,32.994-32.993,86.678,0,119.672    c16.497,16.497,38.165,24.745,59.835,24.745c19.253,0,38.497-6.527,54.123-19.55l7.722,15.444    c1.314,2.628,3.962,4.147,6.714,4.147c1.127,0,2.271-0.255,3.348-0.793c3.705-1.852,5.207-6.357,3.354-10.062l-14.77-29.54    c-2.74-5.479-8.247-8.882-14.373-8.882h-16.126c-17.126,0-31.06-13.934-31.06-31.061c0-17.126,13.934-31.06,31.06-31.06h21.539    c13.022,0,24.947,7.123,31.12,18.588l47.85,88.864c1.964,3.647,6.512,5.011,10.159,3.048c3.647-1.964,5.012-6.512,3.048-10.159    l-34.16-63.44l44.547-44.547C438.931,376.974,447.734,355.724,447.734,333.121z M252.785,431.664    c0,25.398,20.663,46.061,46.06,46.061h16.126c0.408,0,0.774,0.227,0.957,0.591l0.116,0.232    c-27.275,25.177-69.942,24.538-96.42-1.939c-27.145-27.145-27.145-71.313,0-98.458l22.265-22.265    c7.249,7.195,21.157,20.451,38.006,33.814C263.927,396.939,252.785,413.019,252.785,431.664z M370.977,423.716l-6.265-11.635    c-8.793-16.331-25.779-26.477-44.327-26.477h-21.158c-20.452-15.065-38.305-32.005-46.721-40.334l61.378-61.378    c13.149-13.149,30.633-20.391,49.229-20.391s36.08,7.242,49.229,20.391c13.149,13.15,20.392,30.633,20.392,49.229    s-7.242,36.08-20.392,49.229L370.977,423.716z"/>
	</g>
</g>
<g>
	<g>
		<path d="M398.712,297.522c-19.629-19.629-51.568-19.63-71.198,0c-9.509,9.509-14.746,22.152-14.746,35.599    c0,13.448,5.237,26.09,14.746,35.599c9.814,9.815,22.707,14.722,35.599,14.722c12.892,0,25.784-4.907,35.599-14.722    C418.341,349.09,418.341,317.151,398.712,297.522z M388.105,358.113c-13.781,13.781-36.204,13.781-49.985,0    c-6.676-6.676-10.353-15.552-10.353-24.992c0-9.441,3.677-18.317,10.353-24.993c6.891-6.89,15.941-10.335,24.993-10.335    c9.051,0,18.102,3.445,24.992,10.335C401.886,321.909,401.886,344.332,388.105,358.113z"/>
	</g>
</g>
<g>
	<g>
		<circle cx="351" cy="321" r="7.5"/>
	</g>
</g>
<g>
	<g>
		<circle cx="375.25" cy="345.17" r="7.5"/>
	</g>
</g>
<g>
</g>
<g>
</g>
<g>
</g>
<g>
</g>
<g>
</g>
<g>
</g>
<g>
</g>
<g>
</g>
<g>
</g>
<g>
</g>
<g>
</g>
<g>
</g>
<g>
</g>
<g>
</g>
<g>
</g>
</svg>
