<?xml version="1.0" encoding="iso-8859-1"?>
<!-- Generator: Adobe Illustrator 19.0.0, SVG Export Plug-In . SVG Version: 6.00 Build 0)  -->
<svg xmlns="http://www.w3.org/2000/svg" xmlns:xlink="http://www.w3.org/1999/xlink" version="1.1" id="Layer_1" x="0px" y="0px" viewBox="0 0 512.002 512.002" style="enable-background:new 0 0 512.002 512.002;" xml:space="preserve">
<g>
	<g>
		<path d="M213.157,145.672c-4.142,0-7.5,3.358-7.5,7.5v8.569c0,4.142,3.358,7.5,7.5,7.5c4.142,0,7.5-3.358,7.5-7.5v-8.569    C220.657,149.03,217.299,145.672,213.157,145.672z"/>
	</g>
</g>
<g>
	<g>
		<path d="M298.846,145.672c-4.142,0-7.5,3.358-7.5,7.5v8.569c0,4.142,3.358,7.5,7.5,7.5c4.142,0,7.5-3.358,7.5-7.5v-8.569    C306.346,149.03,302.988,145.672,298.846,145.672z"/>
	</g>
</g>
<g>
	<g>
		<path d="M287.502,199.824c-2.63-3.2-7.356-3.663-10.556-1.032c-5.307,4.362-12.94,6.863-20.945,6.863    c-8.005,0-15.638-2.501-20.945-6.863c-3.201-2.631-7.926-2.168-10.556,1.032c-2.63,3.2-2.168,7.926,1.032,10.556    c8.062,6.626,18.882,10.275,30.469,10.275c11.587,0,22.408-3.649,30.469-10.275C289.67,207.75,290.132,203.024,287.502,199.824z"/>
	</g>
</g>
<g>
	<g>
		<path d="M485.398,89.634C467.437,56.278,434.564,15.329,379.952,9.68c-31.087-3.216-54.971,6.591-58.158,7.978    C305.478,6.521,285.772,0,264.57,0h-17.138c-21.202,0-40.907,6.521-57.224,17.658c-3.187-1.387-27.073-11.195-58.158-7.978    C77.439,15.329,44.566,56.278,26.605,89.634c-1.672,3.105-0.955,6.955,1.723,9.25l59.982,51.414    c1.377,1.181,3.113,1.803,4.878,1.803c0.762,0,1.529-0.116,2.275-0.353c2.475-0.786,4.368-2.801,5.002-5.319    c0.145-0.576,13.401-51.61,49.447-73.741c-2.752,9.216-4.238,18.972-4.238,29.071v17.138v10.805    c-9.929,3.18-17.138,12.5-17.138,23.471c0,13.585,11.052,24.638,24.638,24.638h1.342c2.78,38.011,26.536,70.285,59.709,85.28    v22.312l-62.305,27.691c-4.645,2.064-7.97,6.087-9.124,11.037c-1.102,4.726-0.031,9.557,2.897,13.384    c-5.512,7.237-8.589,16.185-8.589,25.36V504.5c0,4.142,3.358,7.5,7.5,7.5c4.142,0,7.5-3.358,7.5-7.5V362.873    c0-4.696,1.263-9.297,3.569-13.323L177.716,376c1.44,1.729,2.234,3.92,2.234,6.17V504.5c0,4.142,3.358,7.5,7.5,7.5    c4.142,0,7.5-3.358,7.5-7.5V382.17c0-5.752-2.028-11.354-5.71-15.773l-31.614-37.936c-0.226-0.271-0.3-0.583-0.22-0.927    c0.08-0.344,0.284-0.591,0.607-0.734l56.326-25.034c1.506,21.676,19.61,38.854,41.662,38.854s40.156-17.178,41.662-38.854    l58.14,25.84c0.99,0.44,2.024,0.648,3.042,0.648c2.874,0,5.616-1.661,6.858-4.456c1.682-3.785-0.022-8.218-3.808-9.9    l-64.119-28.497V263.09c33.173-14.995,56.929-47.268,59.709-85.28h1.342c13.585,0,24.638-11.052,24.638-24.638    c0-10.971-7.209-20.291-17.138-23.471v-10.805v-17.138c0-10.098-1.486-19.855-4.238-29.071    c36.045,22.132,49.302,73.165,49.445,73.735c0.63,2.522,2.521,4.537,4.998,5.327c0.747,0.238,1.515,0.354,2.277,0.354    c1.766,0,3.503-0.624,4.881-1.806l59.982-51.414C486.353,96.589,487.07,92.739,485.398,89.634z M135.04,64.634    c-25.938,19.354-39.729,50.284-45.609,66.868L42.739,91.481C65.879,51.172,96.2,28.706,132.94,24.67    c2.523-0.277,4.993-0.449,7.406-0.542C136.39,32.652,132.968,45.869,135.04,64.634z M247.433,15h17.138    c47.839,0,86.759,38.92,86.759,86.759v9.638H160.674v-9.638C160.674,53.92,199.594,15,247.433,15z M149.433,55.869    c-0.538-17.76,4.949-27.375,7.751-31.087c8.014,0.92,14.704,2.546,19.443,3.967c-7.049,6.838-13.113,14.684-17.959,23.303    C155.463,53.154,152.389,54.437,149.433,55.869z M282.777,290.13c0,0.008,0,0.015,0,0.023v8.692    c0,14.764-12.012,26.776-26.776,26.776c-14.764,0-26.776-12.011-26.776-26.776v-8.692c0-0.008,0-0.016,0-0.023v-21.636    c8.535,2.33,17.512,3.575,26.776,3.575c9.264,0,18.241-1.246,26.776-3.575V290.13z M368.467,153.172    c0,5.314-4.323,9.638-9.638,9.638h-8.569c-4.142,0-7.5,3.358-7.5,7.5c0,47.839-38.92,86.759-86.759,86.759    s-86.759-38.92-86.759-86.759c0-4.142-3.358-7.5-7.5-7.5h-8.569c-5.314,0-9.638-4.323-9.638-9.638s4.323-9.638,9.638-9.638    c4.142,0,7.5-3.358,7.5-7.5v-9.638h190.655v9.638c0,4.142,3.358,7.5,7.5,7.5C364.144,143.534,368.467,147.858,368.467,153.172z     M362.57,55.869c-2.956-1.432-6.03-2.716-9.235-3.817c-4.85-8.627-10.92-16.479-17.977-23.321    c4.725-1.425,11.408-3.053,19.446-3.969C357.601,28.46,363.109,38.078,362.57,55.869z M422.572,131.502    c-5.88-16.584-19.671-47.514-45.609-66.868c2.072-18.766-1.35-31.983-5.306-40.506c2.203,0.086,4.453,0.235,6.752,0.473    c37.031,3.831,67.573,26.32,90.855,66.88L422.572,131.502z"/>
	</g>
</g>
<g>
	<g>
		<path d="M434.879,401.673v-61.054c0.002-5.88-3.323-11.042-8.676-13.473c-5.354-2.431-11.429-1.539-15.856,2.329l-18.404,16.08    c-7.763-1.835-16.061-2.796-24.545-2.796s-16.782,0.961-24.545,2.796l-18.404-16.08c-4.427-3.868-10.503-4.761-15.856-2.329    c-5.353,2.431-8.678,7.594-8.678,13.473v61.054c0,21.3,9.93,40.313,25.391,52.69l-8.151,48.905    c-0.681,4.086,2.079,7.95,6.165,8.631c0.417,0.07,0.833,0.103,1.242,0.103c3.6,0,6.777-2.6,7.389-6.268l7.137-42.825    c8.616,3.999,18.202,6.248,28.309,6.248s19.694-2.248,28.309-6.248l7.137,42.825c0.611,3.668,3.789,6.268,7.389,6.268    c0.41,0,0.825-0.034,1.242-0.103c4.086-0.681,6.846-4.545,6.165-8.631l-8.151-48.905    C424.949,441.986,434.879,422.973,434.879,401.673z M367.398,454.155c-28.939,0-52.483-23.544-52.483-52.483l0.001-60.607    l12.302,10.748c-1.586,2.033-2.086,4.826-1.062,7.394c1.535,3.847,5.898,5.722,9.745,4.187c9.24-3.687,20.132-5.635,31.497-5.635    c11.365,0,22.256,1.949,31.497,5.635c0.912,0.364,1.852,0.536,2.777,0.536c2.979,0,5.797-1.787,6.968-4.723    c1.025-2.567,0.524-5.36-1.061-7.394l12.303-10.748v60.607h-0.001C419.881,430.611,396.337,454.155,367.398,454.155z"/>
	</g>
</g>
<g>
	<g>
		<path d="M394.87,420.292c-3.908-1.375-8.19,0.676-9.566,4.583c-0.752,2.138-2.783,3.574-5.052,3.574    c-2.952,0-5.354-2.401-5.354-5.354c0-4.142-3.358-7.5-7.5-7.5c-4.142,0-7.5,3.358-7.5,7.5c0,2.952-2.401,5.354-5.354,5.354    c-2.269,0-4.3-1.436-5.052-3.574c-1.376-3.907-5.66-5.957-9.566-4.583c-3.907,1.376-5.958,5.659-4.583,9.566    c2.863,8.129,10.58,13.59,19.201,13.59c4.872,0,9.346-1.724,12.854-4.589c3.507,2.865,7.982,4.589,12.854,4.589    c8.621,0,16.337-5.461,19.201-13.59C400.828,425.951,398.776,421.668,394.87,420.292z"/>
	</g>
</g>
<g>
	<g>
		<circle cx="341.421" cy="401.5" r="7.5"/>
	</g>
</g>
<g>
	<g>
		<circle cx="393.421" cy="401.5" r="7.5"/>
	</g>
</g>
<g>
</g>
<g>
</g>
<g>
</g>
<g>
</g>
<g>
</g>
<g>
</g>
<g>
</g>
<g>
</g>
<g>
</g>
<g>
</g>
<g>
</g>
<g>
</g>
<g>
</g>
<g>
</g>
<g>
</g>
</svg>
