<?xml version="1.0" encoding="iso-8859-1"?>
<!-- Generator: Adobe Illustrator 19.0.0, SVG Export Plug-In . SVG Version: 6.00 Build 0)  -->
<svg xmlns="http://www.w3.org/2000/svg" xmlns:xlink="http://www.w3.org/1999/xlink" version="1.1" id="Layer_1" x="0px" y="0px" viewBox="0 0 512 512" style="enable-background:new 0 0 512 512;" xml:space="preserve">
<g>
	<g>
		<path d="M192.173,293.019c-3.217-2.61-7.94-2.117-10.549,1.101c-3.03,3.736-7.047,5.794-11.313,5.794    c-4.266,0-8.283-2.058-11.313-5.794c-2.609-3.217-7.333-3.709-10.549-1.101c-3.217,2.609-3.71,7.333-1.101,10.55    c5.847,7.21,14.216,11.345,22.963,11.345c8.746,0,17.115-4.135,22.963-11.345C195.883,300.352,195.39,295.629,192.173,293.019z"/>
	</g>
</g>
<g>
	<g>
		<path d="M136.035,248.5c-4.142,0-7.5,3.358-7.5,7.5v8.569c0,4.142,3.358,7.5,7.5,7.5c4.142,0,7.5-3.358,7.5-7.5V256    C143.535,251.858,140.177,248.5,136.035,248.5z"/>
	</g>
</g>
<g>
	<g>
		<path d="M204.586,248.5c-4.142,0-7.5,3.358-7.5,7.5v8.569c0,4.142,3.358,7.5,7.5,7.5c4.142,0,7.5-3.358,7.5-7.5V256    C212.086,251.858,208.728,248.5,204.586,248.5z"/>
	</g>
</g>
<g>
	<g>
		<path d="M363.552,318.726c-3.217-2.608-7.94-2.117-10.549,1.101c-3.03,3.736-7.048,5.793-11.313,5.793s-8.283-2.057-11.313-5.793    c-2.608-3.217-7.332-3.709-10.549-1.101c-3.217,2.609-3.709,7.333-1.1,10.55c5.847,7.209,14.217,11.344,22.962,11.344    c8.746,0,17.115-4.134,22.962-11.344C367.261,326.059,366.769,321.336,363.552,318.726z"/>
	</g>
</g>
<g>
	<g>
		<path d="M307.414,274.207c-4.142,0-7.5,3.357-7.5,7.5v8.569c0,4.142,3.358,7.5,7.5,7.5c4.142,0,7.5-3.358,7.5-7.5v-8.569    C314.914,277.564,311.556,274.207,307.414,274.207z"/>
	</g>
</g>
<g>
	<g>
		<path d="M375.965,274.207c-4.142,0-7.5,3.357-7.5,7.5v8.569c0,4.142,3.358,7.5,7.5,7.5c4.142,0,7.5-3.358,7.5-7.5v-8.569    C383.465,277.564,380.107,274.207,375.965,274.207z"/>
	</g>
</g>
<g>
	<g>
		<path d="M504.5,51.414H7.5c-4.142,0-7.5,3.357-7.5,7.5v394.172c0,4.142,3.358,7.5,7.5,7.5h497c4.142,0,7.5-3.358,7.5-7.5V58.914    C512,54.771,508.642,51.414,504.5,51.414z M486.393,66.414l-19.275,19.275H44.882L25.606,66.414H486.393z M382.013,411.309    h-80.646c8.223-4.137,13.547-12.576,13.547-21.989v-10.234c8.586,2.864,17.631,4.379,26.776,4.379    c9.145,0,18.19-1.515,26.776-4.379v10.233C368.466,398.732,373.79,407.17,382.013,411.309z M341.688,368.466    c-16.107,0-31.229-5.341-43.729-15.445c-12.148-9.82-20.73-23.563-24.165-38.697c-1.145-5.045-1.726-10.253-1.726-15.479    c0-4.142-3.358-7.5-7.5-7.5c-5.314,0-9.638-4.323-9.638-9.638s4.323-9.638,9.638-9.638c21.936,0,37.868-19.706,45.154-30.911    c16.876,10.794,36.126,14.616,53.362,18.037c31.689,6.291,48.226,10.913,48.226,39.65c0,5.226-0.581,10.434-1.726,15.48    c-3.435,15.134-12.016,28.876-24.165,38.696C372.919,363.125,357.797,368.466,341.688,368.466z M228.432,192.663    c-1.852-3.705-6.357-5.207-10.062-3.354c-32.281,16.14-98.807,16.346-99.475,16.346c-3.228,0.001-6.094,2.066-7.114,5.128    l-6.616,19.847c-0.146,0.438-0.553,0.731-1.014,0.731H93.189c-0.358,0-0.714,0.012-1.069,0.027v-35.372    c0-28.939,23.544-52.483,52.483-52.483h68.552c8.956,0,16.48,6.455,17.893,15.347c0.359,2.26,1.73,4.233,3.723,5.357    c8.468,4.775,13.729,13.669,13.729,23.21v19.135c-5.505,12.51-8.569,26.327-8.569,40.848c0,12.17-0.362,24.739-0.935,37.027    c-5.425,33.022-34.153,58.301-68.686,58.301c-38.389,0-69.621-31.232-69.621-69.621c0-4.142-3.358-7.5-7.5-7.5    c-5.314,0-9.638-4.323-9.638-9.638s4.324-9.637,9.638-9.637h10.962c6.927,0,13.054-4.416,15.245-10.988l4.931-14.793    c17.235-0.389,70.664-2.812,100.751-17.855C228.783,200.873,230.285,196.369,228.432,192.663z M236.297,326.028    c-1.387,17.012-2.863,31.234-3.823,39.902l-11.818-3.939v-20.885C226.495,336.77,231.747,331.693,236.297,326.028z     M145.733,411.311H49.276v-0.001v-12.626l71.653-21.496C123.829,391.837,133.104,404.214,145.733,411.311z M134.969,367.492    c0-0.036-0.002-0.071-0.002-0.107v-17.373c10.761,4.969,22.733,7.747,35.344,7.747c12.614,0,24.581-2.794,35.345-7.765v17.246    c0,0.008,0,0.016,0,0.023v0.133c0,19.489-15.856,35.345-35.345,35.345C150.854,402.741,135.021,386.937,134.969,367.492z     M219.643,377.464l15.125,5.042c2.107,2.023,6.318,5.593,13.281,9.6c8.175,4.704,17.732,8.693,28.558,11.929l-21.824,7.275    h-59.894C207.438,404.258,216.682,391.994,219.643,377.464z M246.756,373.105c1.139-9.801,4.181-37.458,6.216-69.686    c1.376,0.738,2.821,1.366,4.337,1.834c0.314,4.18,0.935,8.328,1.857,12.391c4.177,18.407,14.605,35.113,29.363,47.042    c3.585,2.898,7.399,5.476,11.384,7.733v16.901h0.001c0,1.682-0.44,3.281-1.218,4.681    C267.183,387.827,251.965,377.431,246.756,373.105z M383.466,372.42c3.985-2.258,7.799-4.835,11.384-7.734    c14.758-11.93,25.187-28.636,29.363-47.042c1.392-6.134,2.098-12.459,2.098-18.8c0-42.391-30.657-48.477-60.305-54.363    c-18.865-3.745-38.372-7.618-53.907-20.045c-1.766-1.412-4.075-1.947-6.286-1.466c-2.209,0.481-4.085,1.939-5.103,3.958    c-4.224,8.384-18.949,30.14-36.142,30.14c-3.458,0-6.751,0.719-9.74,2.011c0.066-3.907,0.103-7.798,0.103-11.649    c0-47.839,38.92-86.758,86.759-86.758c47.839,0,86.758,38.92,86.758,86.759c0,51.719,6.397,110.374,8.175,125.666    c-5.265,4.372-20.486,14.742-51.939,20.904c-0.778-1.4-1.218-3-1.218-4.681V372.42z M435.332,392.106    c10.154-5.843,14.458-10.76,14.916-11.301c1.352-1.6,1.972-3.692,1.712-5.771c-0.085-0.681-8.511-68.798-8.511-127.604    c0-56.109-45.649-101.758-101.759-101.758c-31.552,0-59.795,14.434-78.474,37.046c-1.393-11.963-7.999-22.848-18.102-29.703    c-3.87-14.381-16.789-24.481-31.958-24.481h-68.552c-37.21,0-67.483,30.273-67.483,67.483v41.329    c-5.241,4.522-8.569,11.204-8.569,18.653c0,11.06,7.325,20.44,17.378,23.547c1.894,25.179,14.87,47.302,34.036,61.54v20.73    l-70.689,21.207V100.689h413.448V411.31h-34.128l-21.824-7.274C417.599,400.8,427.156,396.81,435.332,392.106z M15,77.02    l19.276,19.276v296.703c0,0.022,0,0.044,0,0.066v22.638L15,434.98V77.02z M25.606,445.585l19.276-19.275h422.236l19.276,19.275    H25.606z M497,434.98l-19.276-19.277V96.296L497,77.02V434.98z"/>
	</g>
</g>
<g>
</g>
<g>
</g>
<g>
</g>
<g>
</g>
<g>
</g>
<g>
</g>
<g>
</g>
<g>
</g>
<g>
</g>
<g>
</g>
<g>
</g>
<g>
</g>
<g>
</g>
<g>
</g>
<g>
</g>
</svg>
