<?xml version="1.0" encoding="iso-8859-1"?>
<!-- Generator: Adobe Illustrator 19.0.0, SVG Export Plug-In . SVG Version: 6.00 Build 0)  -->
<svg xmlns="http://www.w3.org/2000/svg" xmlns:xlink="http://www.w3.org/1999/xlink" version="1.1" id="Layer_1" x="0px" y="0px" viewBox="0 0 512 512" style="enable-background:new 0 0 512 512;" xml:space="preserve">
<g>
	<g>
		<path d="M256,0c-84.459,0-153.172,68.713-153.172,153.172v205.655C102.828,443.287,171.541,512,256,512    s153.172-68.713,153.172-153.172V153.172C409.172,68.713,340.459,0,256,0z M117.827,153.172C117.828,76.984,179.812,15,256,15    s138.172,61.984,138.172,138.172v58.168c-13.052,25.164-35.443,45.931-66.591,61.738c-25.924,13.156-57.89,22.923-95.009,29.031    c-50.806,8.36-97.566,7.482-114.745,6.76V153.172z M394.173,358.829C394.172,435.016,332.188,497,256,497    s-138.172-61.984-138.172-138.172v-1.513c5.671,0.243,14.078,0.495,24.557,0.495c37.067,0,99.963-3.154,158.645-21.031    c3.962-1.207,6.196-5.397,4.989-9.36c-1.206-3.962-5.397-6.195-9.36-4.989c-72.817,22.183-154.794,20.825-178.831,19.845v-18.372    c5.302,0.227,13.005,0.454,22.545,0.454c23.28,0,57.487-1.356,94.347-7.399c38.694-6.343,72.176-16.583,99.515-30.435    C359.49,273.727,379.554,257.8,394.173,239V358.829z"/>
	</g>
</g>
<g>
	<g>
		<path d="M356.874,305.123c-1.96-3.65-6.508-5.02-10.156-3.062c-5.252,2.819-10.842,5.537-16.615,8.078    c-3.791,1.668-5.512,6.095-3.843,9.886c1.236,2.809,3.985,4.48,6.868,4.48c1.009,0,2.035-0.205,3.018-0.638    c6.128-2.697,12.071-5.587,17.666-8.589C357.462,313.319,358.833,308.773,356.874,305.123z"/>
	</g>
</g>
<g>
	<g>
		<path d="M352.13,120.017C338.104,79.333,299.41,51.413,256,51.413c-5.389,0-10.706,0.432-15.911,1.264    c0.954-6.754,6.756-11.971,13.769-11.971c4.142,0,7.5-3.358,7.5-7.5c0-4.143-3.358-7.5-7.5-7.5    c-15.948,0-28.922,12.975-28.922,28.922c0,0.563,0.02,1.121,0.052,1.676c-30.012,9.691-54.558,33.081-65.118,63.712    c-17.443,0.974-31.335,15.473-31.335,33.155c0,17.682,13.892,32.183,31.335,33.156c14.026,40.685,52.719,68.604,96.13,68.604    s82.104-27.919,96.13-68.604c17.443-0.974,31.335-15.473,31.335-33.155S369.573,120.991,352.13,120.017z M350.259,171.381    c-0.513,0-1.202-0.099-2-0.213l-0.512-0.072c-3.725-0.521-7.251,1.794-8.261,5.412c-10.419,37.344-44.75,63.425-83.486,63.425    c-38.736,0-73.067-26.082-83.486-63.425c-0.915-3.278-3.898-5.485-7.218-5.485c-0.344,0-0.693,0.024-1.042,0.073l-0.512,0.072    c-0.798,0.114-1.487,0.213-2,0.213c-10.039,0-18.207-8.167-18.207-18.207c0-10.04,8.167-18.208,18.206-18.208    c0.513,0,1.201,0.099,1.998,0.212l0.516,0.073c3.723,0.518,7.25-1.795,8.259-5.413c7.975-28.583,29.965-50.552,57.211-59.294    c5.181,7.83,14.062,13.007,24.133,13.007c4.142,0,7.5-3.358,7.5-7.5c0-4.142-3.358-7.5-7.5-7.5c-2.391,0-4.643-0.607-6.611-1.673    c2.888-0.295,5.806-0.464,8.753-0.464c38.736,0,73.067,26.081,83.486,63.425c1.009,3.617,4.539,5.931,8.259,5.413l0.516-0.073    c0.797-0.114,1.485-0.212,1.998-0.212c10.039,0,18.207,8.167,18.207,18.207C368.466,163.214,360.299,171.381,350.259,171.381z"/>
	</g>
</g>
<g>
	<g>
		<path d="M287.501,182.686c-2.63-3.201-7.357-3.662-10.556-1.032c-5.307,4.361-12.94,6.863-20.945,6.863    s-15.638-2.502-20.945-6.863c-3.2-2.631-7.926-2.168-10.556,1.032c-2.63,3.2-2.168,7.926,1.032,10.556    c8.062,6.626,18.882,10.275,30.469,10.275s22.408-3.649,30.469-10.275C289.669,190.612,290.131,185.886,287.501,182.686z"/>
	</g>
</g>
<g>
	<g>
		<path d="M213.155,137.103c-4.142,0-7.5,3.358-7.5,7.5v8.569c0,4.142,3.358,7.5,7.5,7.5c4.142,0,7.5-3.358,7.5-7.5v-8.569    C220.655,140.461,217.297,137.103,213.155,137.103z"/>
	</g>
</g>
<g>
	<g>
		<path d="M298.845,137.103c-4.142,0-7.5,3.358-7.5,7.5v8.569c0,4.142,3.358,7.5,7.5,7.5c4.142,0,7.5-3.358,7.5-7.5v-8.569    C306.345,140.461,302.987,137.103,298.845,137.103z"/>
	</g>
</g>
<g>
</g>
<g>
</g>
<g>
</g>
<g>
</g>
<g>
</g>
<g>
</g>
<g>
</g>
<g>
</g>
<g>
</g>
<g>
</g>
<g>
</g>
<g>
</g>
<g>
</g>
<g>
</g>
<g>
</g>
</svg>
